{
  "accessors": [
    {
      "bufferView": 2,
      "componentType": 5126,
      "count": 933,
      "max": [
        0.061082001775503159,
        0.061588998883962631,
        0.079259000718593597
      ],
      "min": [
        -0.061083000153303146,
        -0.058164000511169434,
        -0.019737999886274338
      ],
      "type": "VEC3"
    },
    {
      "bufferView": 2,
      "byteOffset": 11196,
      "componentType": 5126,
      "count": 933,
      "max": [
        1,
        0.99999886751174927,
        0.99966663122177124
      ],
      "min": [
        -1,
        -0.99830162525177002,
        -0.99992787837982178
      ],
      "type": "VEC3"
    },
    {
      "bufferView": 3,
      "componentType": 5126,
      "count": 933,
      "max": [
        1,
        0.85814177989959717,
        0.99956208467483521,
        1
      ],
      "min": [
        -0.99518245458602905,
        -0.97496479749679565,
        -0.99956226348876953,
        -1
      ],
      "type": "VEC4"
    },
    {
      "bufferView": 1,
      "componentType": 5126,
      "count": 933,
      "max": [
        0.95542997121810913,
        0.97772997617721558
      ],
      "min": [
        0.0044499998912215233,
        0.04050000011920929
      ],
      "type": "VEC2"
    },
    {
      "bufferView": 0,
      "componentType": 5125,
      "count": 4476,
      "max": [
        932
      ],
      "min": [
        0
      ],
      "type": "SCALAR"
    }
  ],
  "asset": {
    "extras": {
      "author": "ricksticky (https://sketchfab.com/ricksticky)",
      "license": "CC-BY-4.0 (http://creativecommons.org/licenses/by/4.0/)",
      "source": "https://sketchfab.com/3d-models/rubber-duck-2e67af60601b4673ab6323574e26838a",
      "title": "Rubber Duck"
    },
    "generator": "Sketchfab-6.93.1",
    "version": "2.0"
  },
  "bufferViews": [
    {
      "buffer": 0,
      "byteLength": 17904,
      "byteOffset": 0,
      "name": "floatBufferViews",
      "target": 34963
    },
    {
      "buffer": 0,
      "byteLength": 7464,
      "byteOffset": 17904,
      "byteStride": 8,
      "name": "floatBufferViews",
      "target": 34962
    },
    {
      "buffer": 0,
      "byteLength": 22392,
      "byteOffset": 25368,
      "byteStride": 12,
      "name": "floatBufferViews",
      "target": 34962
    },
    {
      "buffer": 0,
      "byteLength": 14928,
      "byteOffset": 47760,
      "byteStride": 16,
      "name": "floatBufferViews",
      "target": 34962
    }
  ],
  "buffers": [
    {
      "byteLength": 62688,
      "uri": "scene.bin"
    }
  ],
  "images": [
    {
      "uri": "textures/flipped__defaultMat_baseColor.png"
    }
  ],
  "materials": [
    {
      "doubleSided": true,
      "name": "flipped__defaultMat",
      "pbrMetallicRoughness": {
        "baseColorFactor": [
          1,
          1,
          1,
          1
        ],
        "baseColorTexture": {
          "index": 0,
          "texCoord": 0
        },
        "metallicFactor": 0.0074612817098928053,
        "roughnessFactor": 0.33716360530497863
      }
    }
  ],
  "meshes": [
    {
      "primitives": [
        {
          "attributes": {
            "NORMAL": 1,
            "POSITION": 0,
            "TANGENT": 2,
            "TEXCOORD_0": 3
          },
          "indices": 4,
          "material": 0,
          "mode": 4
        }
      ]
    }
  ],
  "nodes": [
    {
      "children": [
        1
      ],
      "name": "RootNode (gltf orientation matrix)",
      "rotation": [
        -0.70710678118654746,
        -0,
        -0,
        0.70710678118654757
      ]
    },
    {
      "children": [
        2
      ],
      "name": "RootNode (model correction matrix)"
    },
    {
      "children": [
        3
      ],
      "name": "0915d15ef0b64de8b960ae6610138a5b.obj.cleaner.materialmerger.gles"
    },
    {
      "mesh": 0,
      "name": ""
    }
  ],
  "samplers": [
    {
      "magFilter": 9729,
      "minFilter": 9987,
      "wrapS": 10497,
      "wrapT": 10497
    }
  ],
  "scene": 0,
  "scenes": [
    {
      "name": "OSG_Scene",
      "nodes": [
        0
      ]
    }
  ],
  "textures": [
    {
      "sampler": 0,
      "source": 0
    }
  ]
}

