{"asset":{"version":"2.0","generator":"THREE.GLTFExporter"},"scenes":[{"nodes":[0],"name":"AuxScene"}],"scene":0,"nodes":[{"mesh":0}],"bufferViews":[{"buffer":0,"byteOffset":0,"byteLength":1404,"target":34962,"byteStride":12},{"buffer":0,"byteOffset":1404,"byteLength":1404,"target":34962,"byteStride":12}],"buffers":[{"byteLength":2808,"uri":"data:application/octet-stream;base64,"}],"accessors":[{"bufferView":0,"componentType":5126,"count":117,"max":[3.0160000324249268,-0.5,3.299755096435547],"min":[-3.0339999198913574,-0.5,-3.3002450466156006],"type":"VEC3"},{"bufferView":1,"componentType":5126,"count":117,"max":[0,1,0],"min":[0,1,0],"type":"VEC3"}],"materials":[{"pbrMetallicRoughness":{"baseColorFactor":[0.5019607843137255,0.5019607843137255,0.5019607843137255,1],"metallicFactor":0,"roughnessFactor":1}}],"meshes":[{"primitives":[{"mode":4,"attributes":{"POSITION":0,"NORMAL":1},"material":0}]}]}